<?xml version="1.0" encoding="UTF-8" standalone="no"?>
<!DOCTYPE svg PUBLIC "-//W3C//DTD SVG 1.1//EN" "http://www.w3.org/Graphics/SVG/1.1/DTD/svg11.dtd">
<svg xmlns="http://www.w3.org/2000/svg" xmlns:xlink="http://www.w3.org/1999/xlink" version="1.1" width="419.53pt" height="595.28pt" viewBox="0 0 419.53 595.28">
<g enable-background="new">
<g id="Layer-1" data-name="Layer">
<clipPath id="cp0">
<path transform="matrix(1,0,0,-1,0,595.28)" d="M 48.29 8.993 L 371.242 8.993 L 371.242 586.287 L 48.29 586.287 Z "/>
</clipPath>
<g clip-path="url(#cp0)">
<path transform="matrix(1,0,0,-1,203.0508,200.88083)" d="M 0 0 C 0 0 -1.982 2.758 -3.674 4.329 C -5.334 5.875 -7.366 6.704 -7.366 6.704 C -7.366 6.704 -7.592 8.787 -7.957 10.558 C -8.329 12.325 -8.78 13.846 -8.78 13.846 C -8.78 13.846 -6.79 14.046 -4.63 13.101 C -2.544 12.193 -1.635 11.098 -1.635 11.098 C -1.635 11.098 -1.646 7.796 -1.281 5.542 C -.876 2.98 0 0 0 0 M 22.21 13.846 C 22.21 13.846 20.228 14.046 18.06 13.101 C 15.981 12.193 15.073 11.098 15.073 11.098 C 15.073 11.098 15.076 7.796 14.718 5.538 C 14.303 2.98 13.438 0 13.438 0 C 13.438 0 15.416 2.758 17.105 4.329 C 18.765 5.875 20.8 6.704 20.8 6.704 C 20.8 6.704 21.019 8.787 21.391 10.558 C 21.763 12.325 22.21 13.846 22.21 13.846 M 99.072 -156.666 C 101.323 -159.342 103.108 -159.782 104.325 -159.782 C 106.385 -159.782 108.346 -157.184 108.907 -156.444 C 109.473 -155.707 110.804 -153.038 112.521 -152.78 C 114.138 -152.537 114.907 -154.236 114.907 -154.236 C 114.907 -154.236 115.204 -153.288 115.244 -152.816 C 115.376 -151.467 114.639 -150.813 113.913 -150.523 C 111.598 -149.607 108.5 -152.294 107.963 -152.712 C 104.833 -155.177 102.153 -153.832 100.139 -152.412 C 96.396 -149.757 96.354 -144.763 96.354 -144.763 L 94.887 -145.16 C 94.887 -145.16 94.69 -147.525 95.198 -149.557 C 96.082 -153.07 98.375 -155.836 99.072 -156.666 M 87.896 -125.132 C 87.123 -122.066 85.545 -117.687 84.472 -115.458 C 81.317 -108.936 76.669 -107.072 74.659 -106.221 C 70.315 -104.375 66.258 -106.815 64.573 -109.351 C 60.992 -114.732 63.274 -120.453 64.605 -122.37 C 66.287 -124.799 70.798 -129.744 71.843 -131.021 C 75.02 -134.888 74.208 -137.053 73.471 -137.926 C 71.625 -140.108 68.609 -138.255 68.609 -138.255 C 68.609 -138.255 69.145 -140.04 71.067 -140.824 C 74.24 -142.122 76.004 -140.577 77.124 -139.421 C 79.327 -137.139 77.782 -133.668 76.927 -132.345 C 76.072 -131.021 75.059 -129.171 74.498 -128.198 C 72.705 -125.121 74.108 -121.408 75.829 -119.855 C 78.905 -117.09 82.279 -119.336 83.971 -122.038 C 86.451 -125.991 87.692 -131.286 87.692 -131.286 C 87.692 -131.286 88.057 -131.143 88.415 -131.035 C 88.805 -130.921 89.195 -130.842 89.195 -130.842 C 89.195 -130.842 88.504 -127.54 87.896 -125.132 M 81.184 -106.629 C 82.873 -108.203 84.851 -110.957 84.851 -110.957 C 84.851 -110.957 83.982 -107.977 83.574 -105.416 C 83.209 -103.165 83.216 -99.86 83.216 -99.86 C 83.216 -99.86 82.311 -98.768 80.225 -97.856 C 78.064 -96.915 76.075 -97.112 76.075 -97.112 C 76.075 -97.112 76.526 -98.633 76.895 -100.4 C 77.267 -102.171 77.485 -104.257 77.485 -104.257 C 77.485 -104.257 79.521 -105.087 81.184 -106.629 M 69.228 -150.523 C 68.502 -150.813 67.765 -151.467 67.893 -152.816 C 67.94 -153.288 68.237 -154.236 68.237 -154.236 C 68.237 -154.236 69.01 -152.537 70.623 -152.78 C 72.344 -153.038 73.671 -155.707 74.233 -156.444 C 74.798 -157.184 76.755 -159.785 78.819 -159.785 C 80.036 -159.785 81.828 -159.342 84.071 -156.666 C 84.769 -155.836 87.059 -153.07 87.942 -149.557 C 88.454 -147.525 88.254 -145.16 88.254 -145.16 L 86.79 -144.763 C 86.79 -144.763 86.744 -149.757 83.005 -152.412 C 80.991 -153.832 78.311 -155.177 75.184 -152.712 C 74.644 -152.294 71.546 -149.607 69.228 -150.523 M 91.57 -132.906 C 87.699 -132.906 84.558 -135.057 84.558 -137.708 C 84.558 -140.359 87.699 -142.502 91.57 -142.502 C 95.441 -142.502 98.586 -140.359 98.586 -137.708 C 98.586 -135.057 95.441 -132.906 91.57 -132.906 M 95.037 -162.333 C 96.235 -160.222 96.912 -157.396 96.912 -157.396 C 96.912 -157.396 95.234 -155.664 94.007 -152.991 C 92.239 -149.135 92.722 -145.314 92.722 -145.314 C 92.722 -145.314 92.39 -145.335 92.128 -145.335 C 91.874 -145.335 91.57 -145.346 91.57 -145.346 C 91.57 -145.346 91.27 -145.335 91.012 -145.335 C 90.755 -145.335 90.422 -145.314 90.422 -145.314 C 90.422 -145.314 90.905 -149.135 89.134 -152.991 C 87.907 -155.664 86.229 -157.396 86.229 -157.396 C 86.229 -157.396 86.908 -160.222 88.107 -162.333 C 89.545 -164.859 91.57 -167.191 91.57 -167.191 C 91.57 -167.191 93.595 -164.859 95.037 -162.333 M 33.684 -218.09 C 35.011 -216.176 37.294 -210.452 33.712 -205.079 C 32.027 -202.542 27.974 -200.102 23.63 -201.945 C 21.623 -202.796 16.972 -204.656 13.817 -211.182 C 12.74 -213.411 11.166 -217.79 10.393 -220.856 C 9.781 -223.264 9.094 -226.566 9.094 -226.566 C 9.094 -226.566 9.481 -226.648 9.874 -226.763 C 10.232 -226.863 10.597 -227.01 10.597 -227.01 C 10.597 -227.01 11.835 -221.715 14.314 -217.758 C 16.01 -215.06 19.384 -212.814 22.461 -215.579 C 24.185 -217.132 25.584 -220.845 23.791 -223.922 C 23.23 -224.895 22.224 -226.738 21.359 -228.069 C 20.504 -229.392 18.958 -232.863 21.165 -235.145 C 22.278 -236.301 24.046 -237.846 27.222 -236.551 C 29.14 -235.764 29.68 -233.979 29.68 -233.979 C 29.68 -233.979 26.664 -235.832 24.818 -233.65 C 24.078 -232.78 23.266 -230.605 26.443 -226.738 C 27.491 -225.468 32.006 -220.52 33.684 -218.09 M 21.391 -196.124 C 21.763 -194.363 22.21 -192.839 22.21 -192.839 C 22.21 -192.839 20.228 -192.639 18.06 -193.58 C 15.981 -194.492 15.073 -195.583 15.073 -195.583 C 15.073 -195.583 15.076 -198.889 14.722 -201.139 C 14.303 -203.701 13.438 -206.681 13.438 -206.681 C 13.438 -206.681 15.416 -203.923 17.105 -202.352 C 18.765 -200.814 20.8 -199.98 20.8 -199.98 C 20.8 -199.98 21.022 -197.895 21.391 -196.124 M 6.715 -226.477 C 6.715 -226.477 9.187 -215.01 9.81 -212.252 C 12.322 -201.2 12.361 -195.791 11.216 -190.038 C 10.379 -185.852 6.715 -181.044 6.715 -181.044 C 6.715 -181.044 3.052 -185.852 2.218 -190.038 C 1.07 -195.791 1.116 -201.2 3.617 -212.252 C 4.247 -215.01 6.715 -226.477 6.715 -226.477 M 6.715 -228.63 C 2.844 -228.63 -.297 -230.78 -.297 -233.432 C -.297 -236.083 2.844 -238.229 6.715 -238.229 C 10.586 -238.229 13.731 -236.083 13.731 -233.432 C 13.731 -230.78 10.586 -228.63 6.715 -228.63 M 14.218 -252.389 C 16.468 -255.066 18.253 -255.502 19.47 -255.502 C 21.527 -255.502 23.491 -252.908 24.053 -252.168 C 24.614 -251.431 25.942 -248.762 27.666 -248.508 C 29.283 -248.261 30.049 -249.964 30.049 -249.964 C 30.049 -249.964 30.349 -249.012 30.396 -248.54 C 30.525 -247.191 29.784 -246.54 29.058 -246.243 C 26.743 -245.334 23.645 -248.018 23.104 -248.44 C 19.974 -250.901 17.294 -249.56 15.28 -248.136 C 11.542 -245.481 11.495 -240.487 11.495 -240.487 L 10.032 -240.884 C 10.032 -240.884 9.839 -243.252 10.347 -245.281 C 11.23 -248.798 13.52 -251.563 14.218 -252.389 M 1.377 -253.119 C 1.377 -253.119 2.054 -255.946 3.252 -258.049 C 4.69 -260.582 6.715 -262.915 6.715 -262.915 C 6.715 -262.915 8.747 -260.582 10.182 -258.049 C 11.38 -255.946 12.057 -253.119 12.057 -253.119 C 12.057 -253.119 10.379 -251.391 9.152 -248.715 C 7.381 -244.859 7.864 -241.038 7.864 -241.038 C 7.864 -241.038 7.535 -241.055 7.281 -241.055 C 7.019 -241.055 6.715 -241.073 6.715 -241.073 C 6.715 -241.073 6.411 -241.055 6.154 -241.055 C 5.9 -241.055 5.563 -241.038 5.563 -241.038 C 5.563 -241.038 6.046 -244.859 4.283 -248.715 C 3.055 -251.391 1.377 -253.119 1.377 -253.119 M -16.958 -248.54 C -16.919 -249.012 -16.618 -249.964 -16.618 -249.964 C -16.618 -249.964 -15.849 -248.261 -14.236 -248.508 C -12.515 -248.762 -11.184 -251.431 -10.622 -252.168 C -10.057 -252.908 -8.096 -255.502 -6.036 -255.502 C -4.819 -255.502 -3.03 -255.066 -.784 -252.389 C -.086 -251.559 2.204 -248.798 3.087 -245.281 C 3.596 -243.252 3.402 -240.884 3.402 -240.884 L 1.936 -240.487 C 1.936 -240.487 1.893 -245.481 -1.853 -248.136 C -3.864 -249.56 -6.536 -250.901 -9.67 -248.44 C -10.214 -248.018 -13.313 -245.334 -15.627 -246.243 C -16.354 -246.54 -17.09 -247.191 -16.958 -248.54 M -20.285 -205.079 C -23.856 -210.452 -21.577 -216.176 -20.249 -218.09 C -18.568 -220.52 -14.06 -225.471 -13.016 -226.738 C -9.835 -230.605 -10.644 -232.78 -11.384 -233.65 C -13.234 -235.832 -16.246 -233.979 -16.246 -233.979 C -16.246 -233.979 -15.71 -235.764 -13.788 -236.551 C -10.615 -237.846 -8.848 -236.301 -7.731 -235.145 C -5.527 -232.863 -7.069 -229.392 -7.932 -228.069 C -8.783 -226.738 -9.792 -224.895 -10.361 -223.922 C -12.157 -220.845 -10.751 -217.132 -9.026 -215.579 C -5.946 -212.814 -2.579 -215.06 -.884 -217.758 C 1.603 -221.715 2.837 -227.01 2.837 -227.01 C 2.837 -227.01 3.206 -226.863 3.56 -226.763 C 3.95 -226.648 4.336 -226.566 4.336 -226.566 C 4.336 -226.566 3.653 -223.264 3.041 -220.856 C 2.268 -217.79 .694 -213.411 -.386 -211.182 C -3.545 -204.656 -8.186 -202.796 -10.193 -201.945 C -14.54 -200.102 -18.597 -202.542 -20.285 -205.079 M -3.674 -202.352 C -1.982 -203.923 0 -206.681 0 -206.681 C 0 -206.681 -.876 -203.701 -1.281 -201.139 C -1.646 -198.889 -1.635 -195.583 -1.635 -195.583 C -1.635 -195.583 -2.544 -194.492 -4.63 -193.583 C -6.79 -192.639 -8.78 -192.836 -8.78 -192.836 C -8.78 -192.836 -8.329 -194.363 -7.96 -196.124 C -7.592 -197.895 -7.366 -199.98 -7.366 -199.98 C -7.366 -199.98 -5.334 -200.814 -3.674 -202.352 M -83.481 -157.396 C -83.481 -157.396 -82.801 -160.222 -81.61 -162.333 C -80.168 -164.859 -78.143 -167.191 -78.143 -167.191 C -78.143 -167.191 -76.115 -164.859 -74.673 -162.333 C -73.474 -160.222 -72.798 -157.396 -72.798 -157.396 C -72.798 -157.396 -74.476 -155.664 -75.703 -152.991 C -77.474 -149.135 -76.991 -145.314 -76.991 -145.314 C -76.991 -145.314 -77.327 -145.335 -77.581 -145.335 C -77.839 -145.335 -78.143 -145.346 -78.143 -145.346 C -78.143 -145.346 -78.44 -145.335 -78.701 -145.335 C -78.955 -145.335 -79.288 -145.314 -79.288 -145.314 C -79.288 -145.314 -78.809 -149.135 -80.572 -152.991 C -81.803 -155.664 -83.481 -157.396 -83.481 -157.396 M -61.228 -106.221 C -63.239 -107.072 -67.883 -108.936 -71.038 -115.458 C -72.118 -117.687 -73.689 -122.066 -74.465 -125.132 C -75.07 -127.54 -75.764 -130.842 -75.764 -130.842 C -75.764 -130.842 -75.381 -130.921 -74.981 -131.035 C -74.626 -131.143 -74.258 -131.286 -74.258 -131.286 C -74.258 -131.286 -73.024 -125.991 -70.541 -122.038 C -68.845 -119.336 -65.478 -117.09 -62.402 -119.855 C -60.67 -121.408 -59.271 -125.121 -61.064 -128.198 C -61.632 -129.171 -62.638 -131.021 -63.496 -132.345 C -64.351 -133.668 -65.897 -137.139 -63.689 -139.421 C -62.577 -140.577 -60.813 -142.122 -57.64 -140.824 C -55.719 -140.04 -55.175 -138.255 -55.175 -138.255 C -55.175 -138.255 -58.191 -140.108 -60.037 -137.926 C -60.777 -137.053 -61.589 -134.888 -58.412 -131.021 C -57.364 -129.744 -52.853 -124.799 -51.171 -122.37 C -49.84 -120.453 -47.561 -114.732 -51.143 -109.351 C -52.831 -106.815 -56.881 -104.375 -61.228 -106.221 M -63.464 -100.4 C -63.096 -98.633 -62.645 -97.112 -62.645 -97.112 C -62.645 -97.112 -64.627 -96.915 -66.795 -97.856 C -68.877 -98.768 -69.789 -99.86 -69.789 -99.86 C -69.789 -99.86 -69.782 -103.165 -70.14 -105.416 C -70.551 -107.977 -71.421 -110.957 -71.421 -110.957 C -71.421 -110.957 -69.442 -108.203 -67.75 -106.629 C -66.09 -105.087 -64.062 -104.257 -64.062 -104.257 C -64.062 -104.257 -63.836 -102.171 -63.464 -100.4 M -71.131 -137.708 C -71.131 -135.057 -74.265 -132.906 -78.143 -132.906 C -82.011 -132.906 -85.152 -135.057 -85.152 -137.708 C -85.152 -140.359 -82.011 -142.502 -78.143 -142.502 C -74.265 -142.502 -71.131 -140.359 -71.131 -137.708 M -54.463 -152.816 C -54.334 -151.467 -55.067 -150.813 -55.794 -150.523 C -58.108 -149.607 -61.214 -152.294 -61.75 -152.712 C -64.877 -155.177 -67.564 -153.832 -69.571 -152.412 C -73.32 -149.757 -73.36 -144.763 -73.36 -144.763 L -74.823 -145.16 C -74.823 -145.16 -75.02 -147.525 -74.512 -149.557 C -73.628 -153.07 -71.335 -155.836 -70.644 -156.669 C -68.394 -159.342 -66.602 -159.785 -65.392 -159.785 C -63.325 -159.785 -61.364 -157.184 -60.802 -156.444 C -60.237 -155.707 -58.913 -153.038 -57.189 -152.78 C -55.572 -152.537 -54.806 -154.236 -54.806 -154.236 C -54.806 -154.236 -54.509 -153.288 -54.463 -152.816 M -101.817 -152.816 C -101.774 -153.288 -101.477 -154.236 -101.477 -154.236 C -101.477 -154.236 -100.704 -152.537 -99.087 -152.78 C -97.37 -153.038 -96.042 -155.707 -95.477 -156.444 C -94.919 -157.184 -92.955 -159.785 -90.89 -159.785 C -89.674 -159.785 -87.885 -159.342 -85.642 -156.669 C -84.941 -155.836 -82.655 -153.07 -81.771 -149.557 C -81.259 -147.525 -81.46 -145.16 -81.46 -145.16 L -82.923 -144.763 C -82.923 -144.763 -82.962 -149.757 -86.712 -152.412 C -88.719 -153.832 -91.395 -155.177 -94.533 -152.712 C -95.069 -152.294 -98.167 -149.607 -100.482 -150.523 C -101.208 -150.813 -101.949 -151.467 -101.817 -152.816 M -95.055 -106.221 C -99.395 -104.375 -103.455 -106.815 -105.14 -109.351 C -108.718 -114.732 -106.439 -120.453 -105.112 -122.37 C -103.423 -124.799 -98.919 -129.744 -97.87 -131.021 C -94.69 -134.888 -95.506 -137.053 -96.243 -137.926 C -98.092 -140.108 -101.108 -138.255 -101.108 -138.255 C -101.108 -138.255 -100.564 -140.04 -98.643 -140.824 C -95.47 -142.122 -93.706 -140.577 -92.586 -139.421 C -90.386 -137.139 -91.928 -133.668 -92.783 -132.345 C -93.645 -131.021 -94.65 -129.171 -95.219 -128.198 C -97.012 -125.121 -95.606 -121.408 -93.881 -119.855 C -90.808 -117.09 -87.438 -119.336 -85.739 -122.038 C -83.259 -125.991 -82.018 -131.286 -82.018 -131.286 C -82.018 -131.286 -81.653 -131.143 -81.299 -131.035 C -80.905 -130.921 -80.519 -130.842 -80.519 -130.842 C -80.519 -130.842 -81.213 -127.54 -81.817 -125.132 C -82.587 -122.066 -84.161 -117.687 -85.238 -115.458 C -88.4 -108.936 -93.048 -107.072 -95.055 -106.221 M -84.862 -110.957 C -84.862 -110.957 -85.731 -107.977 -86.139 -105.416 C -86.501 -103.165 -86.493 -99.86 -86.493 -99.86 C -86.493 -99.86 -87.402 -98.768 -89.484 -97.856 C -91.649 -96.915 -93.638 -97.112 -93.638 -97.112 C -93.638 -97.112 -93.184 -98.633 -92.815 -100.4 C -92.447 -102.171 -92.221 -104.257 -92.221 -104.257 C -92.221 -104.257 -90.193 -105.087 -88.533 -106.629 C -86.84 -108.203 -84.862 -110.957 -84.862 -110.957 M -75.045 -116.528 C -72.533 -105.473 -72.498 -100.067 -73.639 -94.314 C -74.476 -90.132 -78.143 -85.32 -78.143 -85.32 C -78.143 -85.32 -81.807 -90.132 -82.637 -94.314 C -83.785 -100.067 -83.742 -105.473 -81.238 -116.528 C -80.608 -119.283 -78.143 -130.753 -78.143 -130.753 C -78.143 -130.753 -75.671 -119.283 -75.045 -116.528 M -10.193 4.733 C -14.54 6.579 -18.597 4.139 -20.285 1.603 C -23.856 -3.771 -21.577 -9.491 -20.249 -11.409 C -18.568 -13.845 -14.06 -18.786 -13.016 -20.056 C -9.835 -23.927 -10.644 -26.095 -11.384 -26.968 C -13.234 -29.151 -16.246 -27.297 -16.246 -27.297 C -16.246 -27.297 -15.71 -29.083 -13.788 -29.866 C -10.611 -31.165 -8.848 -29.619 -7.731 -28.464 C -5.527 -26.181 -7.069 -22.711 -7.932 -21.387 C -8.783 -20.056 -9.788 -18.214 -10.357 -17.241 C -12.157 -14.16 -10.751 -10.45 -9.026 -8.898 C -5.946 -6.132 -2.579 -8.379 -.884 -11.08 C 1.603 -15.033 2.837 -20.325 2.837 -20.325 C 2.837 -20.325 3.206 -20.182 3.56 -20.078 C 3.95 -19.963 4.336 -19.885 4.336 -19.885 C 4.336 -19.885 3.653 -16.579 3.041 -14.171 C 2.268 -11.105 .694 -6.73 -.386 -4.501 C -3.545 2.025 -8.186 3.885 -10.193 4.733 M 15.284 -41.451 C 11.542 -38.8 11.495 -33.805 11.495 -33.805 L 10.032 -34.202 C 10.032 -34.202 9.839 -36.567 10.347 -38.599 C 11.23 -42.113 13.52 -44.878 14.218 -45.708 C 16.468 -48.381 18.253 -48.821 19.47 -48.821 C 21.53 -48.821 23.491 -46.227 24.053 -45.486 C 24.614 -44.753 25.942 -42.077 27.666 -41.823 C 29.283 -41.579 30.049 -43.275 30.049 -43.275 C 30.049 -43.275 30.349 -42.327 30.396 -41.859 C 30.525 -40.517 29.784 -39.852 29.058 -39.565 C 26.743 -38.649 23.645 -41.333 23.104 -41.755 C 19.974 -44.216 17.294 -42.878 15.284 -41.451 M 6.715 -31.551 C 10.586 -31.551 13.731 -29.401 13.731 -26.75 C 13.731 -24.099 10.586 -21.949 6.715 -21.949 C 2.844 -21.949 -.297 -24.099 -.297 -26.75 C -.297 -29.401 2.844 -31.551 6.715 -31.551 M 12.057 -46.438 C 12.057 -46.438 10.379 -44.71 9.152 -42.034 C 7.381 -38.177 7.867 -34.36 7.867 -34.36 C 7.867 -34.36 7.535 -34.374 7.281 -34.374 C 7.019 -34.374 6.715 -34.388 6.715 -34.388 C 6.715 -34.388 6.411 -34.374 6.157 -34.374 C 5.896 -34.374 5.563 -34.36 5.563 -34.36 C 5.563 -34.36 6.046 -38.177 4.283 -42.034 C 3.055 -44.71 1.377 -46.438 1.377 -46.438 C 1.377 -46.438 2.054 -49.264 3.252 -51.368 C 4.69 -53.901 6.715 -56.23 6.715 -56.23 C 6.715 -56.23 8.747 -53.901 10.182 -51.368 C 11.38 -49.264 12.057 -46.438 12.057 -46.438 M -.784 -45.708 C -.086 -44.878 2.204 -42.116 3.087 -38.599 C 3.596 -36.567 3.402 -34.202 3.402 -34.202 L 1.936 -33.805 C 1.936 -33.805 1.893 -38.8 -1.853 -41.451 C -3.864 -42.878 -6.536 -44.216 -9.67 -41.755 C -10.214 -41.333 -13.309 -38.649 -15.627 -39.565 C -16.354 -39.852 -17.09 -40.517 -16.958 -41.859 C -16.919 -42.327 -16.618 -43.275 -16.618 -43.275 C -16.618 -43.275 -15.849 -41.579 -14.232 -41.823 C -12.515 -42.077 -11.184 -44.753 -10.622 -45.486 C -10.057 -46.227 -8.096 -48.821 -6.036 -48.821 C -4.819 -48.821 -3.03 -48.381 -.784 -45.708 M 9.81 -5.567 C 12.322 5.485 12.361 10.887 11.216 16.647 C 10.379 20.829 6.715 25.638 6.715 25.638 C 6.715 25.638 3.052 20.829 2.218 16.647 C 1.07 10.887 1.116 5.485 3.617 -5.567 C 4.247 -8.329 6.715 -19.795 6.715 -19.795 C 6.715 -19.795 9.187 -8.329 9.81 -5.567 M 33.684 -11.409 C 35.011 -9.491 37.294 -3.771 33.712 1.603 C 32.027 4.139 27.974 6.579 23.63 4.733 C 21.623 3.885 16.972 2.025 13.817 -4.497 C 12.74 -6.73 11.166 -11.105 10.393 -14.171 C 9.781 -16.579 9.094 -19.885 9.094 -19.885 C 9.094 -19.885 9.481 -19.963 9.874 -20.078 C 10.232 -20.182 10.597 -20.325 10.597 -20.325 C 10.597 -20.325 11.835 -15.033 14.314 -11.08 C 16.01 -8.379 19.384 -6.132 22.461 -8.894 C 24.185 -10.45 25.584 -14.16 23.791 -17.241 C 23.23 -18.214 22.224 -20.056 21.359 -21.387 C 20.504 -22.711 18.958 -26.181 21.165 -28.464 C 22.278 -29.619 24.046 -31.165 27.222 -29.866 C 29.14 -29.083 29.68 -27.297 29.68 -27.297 C 29.68 -27.297 26.664 -29.151 24.818 -26.968 C 24.078 -26.095 23.266 -23.927 26.443 -20.056 C 27.491 -18.786 32.006 -13.845 33.684 -11.409 M 6.722 -87.688 L 6.712 -87.688 L -10.547 -87.688 L 6.712 -117.845 L 6.722 -117.845 L 23.981 -87.688 Z M 93.767 -200.095 C 93.767 -200.095 90.053 -209.379 84.468 -212.205 C 73.807 -217.597 67.078 -208.91 67.078 -208.91 C 67.078 -208.91 64.287 -212.069 58.577 -210.771 C 56.427 -210.288 54.423 -208.885 53.228 -207.286 C 52.62 -206.47 52.137 -205.39 52.137 -205.39 C 52.137 -205.39 58.012 -205.494 59.171 -202.571 C 59.804 -200.989 59.74 -198.717 53.99 -195.033 C 52.159 -193.855 43.376 -188.958 39.744 -186.5 C 36.006 -183.97 30.993 -180.192 33.354 -175.495 C 35.243 -171.753 39.047 -170.325 39.047 -170.325 L 24.468 -114.939 L 6.722 -144.079 L 6.712 -144.079 L -11.037 -114.939 L -25.62 -170.325 C -25.62 -170.325 -21.809 -171.753 -19.928 -175.495 C -17.559 -180.192 -22.571 -183.97 -26.314 -186.5 C -29.945 -188.958 -38.732 -193.855 -40.564 -195.033 C -46.309 -198.717 -46.374 -200.989 -45.74 -202.571 C -44.578 -205.494 -38.696 -205.39 -38.696 -205.39 C -38.696 -205.39 -39.186 -206.47 -39.798 -207.286 C -40.989 -208.885 -42.989 -210.288 -45.139 -210.771 C -50.86 -212.069 -53.643 -208.91 -53.643 -208.91 C -53.643 -208.91 -60.373 -217.597 -71.034 -212.205 C -76.619 -209.379 -80.333 -200.095 -80.333 -200.095 C -80.333 -200.095 -79.857 -201.29 -73.861 -202.803 C -67.403 -204.442 -65.314 -197.594 -64.77 -196.027 C -62.412 -189.255 -57.833 -188.561 -53.944 -187.162 C -50.055 -185.773 -38.46 -182.593 -36.446 -182.017 C -30.367 -180.289 -30.965 -178.543 -31.523 -177.598 C -32.592 -175.831 -36.997 -177.831 -39.862 -178.765 C -44.367 -180.221 -47.379 -180.74 -49.726 -180.454 C -54.151 -179.921 -54.77 -174.811 -53.618 -171.313 C -52.695 -168.515 -24.353 -90.103 -24.353 -90.103 L -32.206 -90.103 C -32.206 -90.103 -35.115 -78.404 -36.975 -73.503 C -41.683 -61.06 -46.184 -56.388 -47.69 -55.411 C -54.992 -50.685 -57.175 -55.429 -57.597 -56.717 C -59.081 -61.253 -56.291 -63.639 -56.291 -63.639 C -56.291 -63.639 -57.554 -64.158 -58.824 -64.194 C -61.031 -64.269 -62.816 -63.185 -64.333 -61.55 C -68.276 -57.307 -64.702 -51.912 -64.702 -51.912 C -64.702 -51.912 -70.036 -51.046 -72.294 -43.723 C -75.077 -34.714 -65.375 -28.124 -65.375 -28.124 C -65.375 -28.124 -65.793 -28.746 -65.074 -33.115 C -64.348 -37.483 -56.795 -39.401 -53.207 -40.299 C -44.828 -42.381 -38.746 -48.552 -35.183 -52.695 C -30.886 -57.693 -27.351 -69.174 -27.351 -69.174 L 6.712 -69.174 L 6.722 -69.174 L 40.782 -69.174 C 40.782 -69.174 44.32 -57.693 48.613 -52.695 C 52.18 -48.552 58.262 -42.381 66.634 -40.299 C 70.237 -39.401 77.782 -37.483 78.505 -33.115 C 79.224 -28.746 78.809 -28.124 78.809 -28.124 C 78.809 -28.124 88.511 -34.714 85.731 -43.723 C 83.467 -51.046 78.136 -51.912 78.136 -51.912 C 78.136 -51.912 81.714 -57.307 77.764 -61.55 C 76.247 -63.185 74.465 -64.269 72.254 -64.194 C 70.988 -64.158 69.725 -63.639 69.725 -63.639 C 69.725 -63.639 72.516 -61.253 71.027 -56.717 C 70.601 -55.429 68.419 -50.685 61.128 -55.411 C 59.618 -56.388 55.117 -61.06 50.406 -73.503 C 48.545 -78.404 45.64 -90.103 45.64 -90.103 L 37.784 -90.103 C 37.784 -90.103 66.126 -168.515 67.049 -171.313 C 68.204 -174.811 67.582 -179.921 63.16 -180.454 C 60.809 -180.74 57.801 -180.221 53.296 -178.765 C 50.431 -177.831 46.027 -175.831 44.957 -177.598 C 44.392 -178.543 43.798 -180.289 49.876 -182.017 C 51.89 -182.593 63.489 -185.773 67.378 -187.162 C 71.263 -188.561 75.846 -189.255 78.2 -196.027 C 78.744 -197.594 80.834 -204.442 87.295 -202.803 C 93.287 -201.29 93.767 -200.095 93.767 -200.095 M 94.665 -116.528 C 97.173 -105.473 97.216 -100.067 96.071 -94.314 C 95.234 -90.132 91.57 -85.32 91.57 -85.32 C 91.57 -85.32 87.907 -90.132 87.073 -94.314 C 85.928 -100.067 85.968 -105.473 88.476 -116.528 C 89.105 -119.283 91.57 -130.753 91.57 -130.753 C 91.57 -130.753 94.046 -119.283 94.665 -116.528 M 107.065 -97.112 C 107.065 -97.112 105.079 -96.915 102.919 -97.856 C 100.836 -98.768 99.928 -99.86 99.928 -99.86 C 99.928 -99.86 99.935 -103.165 99.57 -105.416 C 99.166 -107.977 98.293 -110.957 98.293 -110.957 C 98.293 -110.957 100.271 -108.203 101.96 -106.629 C 103.623 -105.087 105.655 -104.257 105.655 -104.257 C 105.655 -104.257 105.881 -102.171 106.246 -100.4 C 106.618 -98.633 107.065 -97.112 107.065 -97.112 M 118.539 -122.37 C 119.869 -120.453 122.145 -114.732 118.574 -109.351 C 116.886 -106.815 112.829 -104.375 108.485 -106.221 C 106.475 -107.072 101.834 -108.936 98.672 -115.458 C 97.595 -117.687 96.021 -122.066 95.248 -125.132 C 94.643 -127.54 93.949 -130.842 93.949 -130.842 C 93.949 -130.842 94.336 -130.921 94.729 -131.035 C 95.087 -131.143 95.452 -131.286 95.452 -131.286 C 95.452 -131.286 96.69 -125.991 99.173 -122.038 C 100.865 -119.336 104.239 -117.09 107.312 -119.855 C 109.04 -121.408 110.442 -125.121 108.646 -128.198 C 108.085 -129.171 107.072 -131.021 106.217 -132.345 C 105.359 -133.668 103.813 -137.139 106.024 -139.421 C 107.133 -140.577 108.9 -142.122 112.077 -140.824 C 113.995 -140.04 114.532 -138.255 114.532 -138.255 C 114.532 -138.255 111.523 -140.108 109.67 -137.926 C 108.936 -137.053 108.124 -134.888 111.305 -131.021 C 112.346 -129.744 116.854 -124.799 118.539 -122.37 M -105.083 -341.205 L -105.083 -384.223 L -93.477 -384.223 L -93.477 -341.205 L -77.66 -341.205 L -77.66 -331.449 L -120.896 -331.449 L -120.896 -341.205 Z M -26.314 -364.266 L -26.314 -331.449 L -37.916 -331.449 L -37.916 -364.266 C -37.916 -368.206 -38.707 -371.103 -40.281 -372.953 C -41.859 -374.796 -44.717 -375.722 -48.857 -375.722 C -51.221 -375.722 -53.107 -375.393 -54.509 -374.724 C -55.915 -374.062 -57.014 -373.196 -57.801 -372.137 C -58.588 -371.078 -59.107 -369.858 -59.353 -368.477 C -59.6 -367.096 -59.718 -365.698 -59.718 -364.266 L -59.718 -331.449 L -71.324 -331.449 L -71.324 -364.266 C -71.324 -371.461 -69.367 -376.785 -65.45 -380.23 C -61.532 -383.682 -56.001 -385.407 -48.857 -385.407 C -41.812 -385.407 -36.292 -383.668 -32.299 -380.191 C -28.31 -376.72 -26.314 -371.411 -26.314 -364.266 M -17.191 -331.449 L -17.191 -384.223 L -5.585 -384.223 L -5.585 -363.601 L 6.018 -363.601 C 8.926 -363.601 11.019 -364.241 12.3 -365.522 C 13.581 -366.807 14.418 -368.824 14.811 -371.583 C 15.109 -373.704 15.33 -375.922 15.477 -378.234 C 15.627 -380.552 16.021 -382.548 16.661 -384.223 L 28.267 -384.223 C 27.723 -383.482 27.315 -382.584 27.047 -381.521 C 26.775 -380.466 26.578 -379.343 26.457 -378.162 C 26.332 -376.978 26.242 -375.819 26.196 -374.688 C 26.145 -373.554 26.096 -372.567 26.049 -371.729 C 25.949 -370.399 25.763 -369.071 25.491 -367.74 C 25.223 -366.409 24.79 -365.19 24.199 -364.081 C 23.609 -362.975 22.843 -362.013 21.91 -361.2 C 20.972 -360.385 19.788 -359.784 18.361 -359.387 L 18.361 -359.24 C 21.319 -358.059 23.448 -356.331 24.754 -354.063 C 26.056 -351.802 26.714 -349.115 26.714 -346.01 C 26.714 -343.992 26.357 -342.107 25.641 -340.353 C 24.929 -338.607 23.892 -337.065 22.539 -335.738 C 21.18 -334.407 19.555 -333.359 17.659 -332.594 C 15.763 -331.831 13.631 -331.449 11.266 -331.449 Z M -5.585 -355.322 L -5.585 -340.468 L 7.127 -340.468 C 9.788 -340.468 11.781 -341.047 13.112 -342.203 C 14.443 -343.362 15.109 -345.223 15.109 -347.784 C 15.109 -350.446 14.443 -352.367 13.112 -353.551 C 11.781 -354.732 9.788 -355.322 7.127 -355.322 Z M 35.676 -331.449 L 35.676 -384.223 L 47.282 -384.223 L 47.282 -367.222 L 53.933 -360.496 L 69.825 -384.223 L 84.383 -384.223 L 61.768 -352.292 L 82.39 -331.449 L 67.9 -331.449 L 47.282 -353.33 L 47.282 -331.449 Z M 133.829 -364.266 L 133.829 -331.449 L 122.227 -331.449 L 122.227 -364.266 C 122.227 -368.206 121.437 -371.103 119.862 -372.953 C 118.285 -374.796 115.426 -375.722 111.287 -375.722 C 108.922 -375.722 107.036 -375.393 105.634 -374.724 C 104.228 -374.062 103.13 -373.196 102.342 -372.137 C 101.555 -371.078 101.037 -369.858 100.79 -368.477 C 100.547 -367.096 100.421 -365.698 100.421 -364.266 L 100.421 -331.449 L 88.819 -331.449 L 88.819 -364.266 C 88.819 -371.461 90.776 -376.785 94.693 -380.23 C 98.611 -383.682 104.142 -385.407 111.287 -385.407 C 118.331 -385.407 123.851 -383.668 127.844 -380.191 C 131.833 -376.72 133.829 -371.411 133.829 -364.266 M 168.121 174.314 C 167.671 170.404 165.016 167.095 161.295 165.807 C 156.065 163.996 153.26 162.111 152.469 143.164 C 157.982 138.645 160.004 130.263 157.124 121.944 C 155.553 117.401 152.712 113.68 149.206 111.337 L 142.605 96.819 C 147.307 92.958 150.337 87.13 150.412 80.612 C 150.412 80.555 150.415 80.494 150.415 80.433 C 150.415 80.379 150.415 80.326 150.412 80.272 C 150.287 68.573 140.767 59.139 129.118 59.139 L -115.687 59.139 C -127.329 59.139 -136.842 68.559 -136.985 80.175 L -136.985 80.358 L -136.985 80.433 C -136.985 80.547 -136.981 80.658 -136.978 80.769 C -136.835 87.238 -133.819 92.994 -129.171 96.815 L -135.776 111.34 C -139.282 113.68 -142.119 117.401 -143.689 121.941 C -146.437 129.869 -144.731 137.854 -139.79 142.502 C -140.817 161.596 -142.391 163.914 -147.865 165.807 C -151.585 167.095 -154.24 170.404 -154.694 174.314 C -155.145 178.228 -153.317 182.056 -149.986 184.16 C -143.893 188.006 -137.886 189.959 -132.137 189.959 C -127.808 189.959 -121.014 188.786 -114.854 182.722 C -114.793 182.754 -114.732 182.786 -114.667 182.818 C -111.852 184.224 -108.546 184.26 -105.698 182.915 C -102.854 181.57 -100.786 178.99 -100.089 175.921 C -98.836 170.411 -98.45 165.181 -98.958 160.079 C -95.216 160.791 -91.327 161.156 -87.341 161.156 C -81.678 161.156 -77.088 156.566 -77.088 150.902 C -77.088 149.707 -77.206 148.534 -77.428 147.392 C -76.422 146.498 -75.496 145.618 -74.626 144.727 C -71.027 148.083 -66.201 150.137 -60.906 150.137 C -60.165 150.137 -59.411 150.097 -58.67 150.015 C -54.259 149.532 -50.27 147.607 -47.182 144.731 C -46.316 145.618 -45.39 146.498 -44.384 147.392 C -44.606 148.534 -44.721 149.707 -44.721 150.902 C -44.721 156.566 -40.134 161.156 -34.471 161.156 C -30.968 161.156 -27.541 160.873 -24.221 160.326 C -24.768 163.642 -25.047 167.069 -25.047 170.576 C -25.047 176.236 -20.461 180.826 -14.797 180.826 C -13.606 180.826 -12.432 180.711 -11.291 180.486 C -7.266 185.008 -3.545 187.967 2.132 190.807 C 5.02 192.249 8.418 192.249 11.302 190.807 C 16.98 187.967 20.697 185.008 24.722 180.486 C 25.863 180.711 27.036 180.826 28.231 180.826 C 33.891 180.826 38.481 176.236 38.481 170.576 C 38.481 167.069 38.199 163.642 37.651 160.326 C 40.971 160.873 44.399 161.156 47.905 161.156 C 53.565 161.156 58.155 156.566 58.155 150.902 C 58.155 149.707 58.04 148.534 57.815 147.392 C 58.82 146.498 59.751 145.618 60.616 144.727 C 64.215 148.083 69.042 150.137 74.337 150.137 C 75.077 150.137 75.832 150.097 76.573 150.015 C 80.984 149.532 84.973 147.607 88.061 144.727 C 88.923 145.618 89.853 146.498 90.858 147.392 C 90.636 148.534 90.522 149.707 90.522 150.902 C 90.522 156.566 95.112 161.156 100.772 161.156 C 104.757 161.156 108.646 160.791 112.392 160.079 C 111.881 165.181 112.27 170.411 113.523 175.921 C 114.22 178.99 116.288 181.57 119.136 182.915 C 121.98 184.26 125.286 184.224 128.102 182.815 C 128.162 182.786 128.227 182.754 128.284 182.722 C 134.448 188.786 141.242 189.959 145.568 189.959 C 151.321 189.959 157.324 188.006 163.417 184.16 C 166.744 182.056 168.576 178.228 168.121 174.314 M 157.939 175.491 C 146.262 182.868 135.812 181.026 129.661 166.272 C 127.819 169.96 127.204 171.803 123.519 173.649 C 120.445 160.125 124.131 149.675 132.738 138.609 C 123.519 147.829 111.222 150.902 100.772 150.902 C 100.772 149.06 101.384 146.598 103.845 144.756 C 95.853 138.609 92.779 135.533 89.706 129.386 C 92.779 123.24 95.853 120.166 103.845 114.02 C 101.384 112.174 100.772 109.716 100.772 107.87 C 111.222 107.87 123.519 110.943 132.738 120.166 C 128.434 109.716 114.295 99.881 108.149 99.881 C 102.951 99.881 88.959 107.791 79.188 121.386 C 82.451 123.229 84.565 126.874 84.175 130.971 C 83.739 135.561 80.036 139.325 75.456 139.826 C 69.496 140.48 64.448 135.829 64.448 130.001 C 64.448 126.306 66.48 123.082 69.485 121.386 C 59.715 107.791 45.726 99.881 40.524 99.881 C 34.378 99.881 19.012 107.87 15.938 120.166 C 25.154 110.943 37.451 107.87 47.905 107.87 C 47.905 109.716 47.289 112.174 44.828 114.02 C 52.821 120.166 55.897 123.24 58.967 129.386 C 55.897 135.533 52.821 138.609 44.828 144.756 C 47.289 146.598 47.905 149.06 47.905 150.902 C 37.451 150.902 25.154 147.829 15.938 138.609 C 25.154 147.829 28.231 160.125 28.231 170.576 C 26.385 170.576 23.927 169.96 22.085 167.502 C 15.938 175.491 12.862 178.564 6.715 181.641 C .569 178.564 -2.504 175.491 -8.654 167.502 C -10.497 169.96 -12.955 170.576 -14.797 170.576 C -14.797 160.125 -11.728 147.829 -2.504 138.609 C -11.728 147.829 -24.02 150.902 -34.471 150.902 C -34.471 149.06 -33.855 146.598 -31.398 144.756 C -39.39 138.609 -42.463 135.533 -45.536 129.386 C -42.463 123.24 -39.39 120.166 -31.398 114.02 C -33.855 112.174 -34.471 109.716 -34.471 107.87 C -24.02 107.87 -11.728 110.943 -2.504 120.166 C -5.578 107.87 -20.947 99.881 -27.094 99.881 C -32.296 99.881 -46.284 107.791 -56.055 121.386 C -52.792 123.229 -50.678 126.874 -51.064 130.971 C -51.504 135.561 -55.207 139.325 -59.786 139.826 C -65.75 140.48 -70.791 135.829 -70.791 130.001 C -70.791 126.306 -68.763 123.082 -65.757 121.386 C -75.528 107.791 -89.52 99.881 -94.718 99.881 C -100.865 99.881 -115.004 109.716 -119.308 120.166 C -110.085 110.943 -97.788 107.87 -87.341 107.87 C -87.341 109.716 -87.953 112.174 -90.415 114.02 C -82.422 120.166 -79.349 123.24 -76.276 129.386 C -79.349 135.533 -82.422 138.609 -90.415 144.756 C -87.953 146.598 -87.341 149.06 -87.341 150.902 C -97.788 150.902 -110.085 147.829 -119.308 138.609 C -110.7 149.675 -107.011 160.125 -110.085 173.649 C -113.773 171.803 -114.388 169.96 -116.234 166.272 C -122.381 181.026 -132.831 182.868 -144.512 175.491 C -131.132 170.862 -130.245 160.63 -129.229 136.144 C -129.973 136.259 -130.717 136.187 -131.422 135.897 C -134.445 134.656 -135.604 129.912 -134.005 125.297 C -132.803 121.83 -130.391 119.422 -127.984 118.968 L -115.451 91.402 L -115.687 91.402 C -121.776 91.402 -126.71 86.476 -126.731 80.394 C -126.731 80.408 -126.735 80.422 -126.735 80.433 L -126.735 80.354 C -126.735 80.369 -126.731 80.383 -126.731 80.394 C -126.71 74.312 -121.776 69.389 -115.687 69.389 L 129.118 69.389 C 135.207 69.389 140.14 74.312 140.162 80.394 L 140.162 80.354 L 140.162 80.433 L 140.162 80.394 C 140.14 86.476 135.207 91.402 129.118 91.402 L 128.885 91.402 L 141.414 118.968 C 143.822 119.422 146.237 121.83 147.435 125.297 C 149.035 129.912 147.879 134.656 144.852 135.897 C 143.947 136.27 142.981 136.284 142.026 136.005 C 142.373 160.59 144.537 170.851 157.939 175.491 M 149.02 31.491 L 149.02 -224.108 C 149.02 -260.393 119.605 -289.805 83.324 -289.805 L 37.283 -289.805 C 31.118 -289.805 25.319 -291.515 20.94 -294.223 C 17.563 -296.212 14.586 -298.817 12.178 -301.883 C 10.801 -303.636 8.751 -304.502 6.737 -304.455 L 6.737 -304.462 C 4.708 -304.52 2.637 -303.654 1.252 -301.89 C -1.156 -298.824 -4.132 -296.219 -7.513 -294.23 C -11.889 -291.522 -17.688 -289.812 -23.852 -289.812 L -69.893 -289.812 C -106.178 -289.812 -135.59 -260.4 -135.59 -224.112 L -135.59 31.483 C -135.59 40.524 -128.263 47.855 -119.218 47.855 L 6.694 47.855 L 6.694 47.862 L 132.649 47.862 C 141.69 47.862 149.02 40.531 149.02 31.491 M 136.523 31.491 C 136.523 33.626 134.785 35.365 132.649 35.365 L 6.737 35.365 L 6.737 35.362 L -119.218 35.362 C -121.354 35.362 -123.093 33.619 -123.093 31.483 L -123.093 -224.112 C -123.093 -253.449 -99.226 -277.315 -69.893 -277.315 L -23.852 -277.315 C -11.202 -277.315 .111 -282.36 6.712 -289.934 C 13.313 -282.356 24.629 -277.308 37.283 -277.308 L 83.324 -277.308 C 112.657 -277.308 136.523 -253.445 136.523 -224.108 Z " fill="#ffffff"/>
</g>
</g>
</g>
</svg>
