<?xml version="1.0" encoding="UTF-8" standalone="no"?>
<!DOCTYPE svg PUBLIC "-//W3C//DTD SVG 1.1//EN" "http://www.w3.org/Graphics/SVG/1.1/DTD/svg11.dtd">
<svg xmlns="http://www.w3.org/2000/svg" xmlns:xlink="http://www.w3.org/1999/xlink" version="1.1" width="595.28pt" height="419.53pt" viewBox="0 0 595.28 419.53">
<g enable-background="new">
<g id="Layer-1" data-name="Layer">
<clipPath id="cp0">
<path transform="matrix(1,0,0,-1,0,419.53)" d="M 24.901 101.18 L 570.378 101.18 L 570.378 318.35 L 24.901 318.35 Z "/>
</clipPath>
<g clip-path="url(#cp0)">
<path transform="matrix(1,0,0,-1,164.1122,104.5629)" d="M 0 0 C -2.664 1.683 -5.292 2.536 -7.808 2.536 C -9.702 2.536 -12.675 2.025 -15.369 -.629 C -15.397 -.616 -15.424 -.602 -15.449 -.588 C -16.683 .028 -18.128 .044 -19.374 -.545 C -20.618 -1.134 -21.524 -2.262 -21.829 -3.605 C -22.377 -6.015 -22.547 -8.305 -22.325 -10.535 C -23.962 -10.225 -25.663 -10.068 -27.407 -10.068 C -29.886 -10.068 -31.893 -12.075 -31.893 -14.551 C -31.893 -15.074 -31.842 -15.586 -31.745 -16.086 C -32.184 -16.478 -32.591 -16.863 -32.97 -17.252 C -34.321 -15.993 -36.065 -15.152 -37.995 -14.939 C -38.321 -14.904 -38.648 -14.885 -38.973 -14.885 C -41.291 -14.885 -43.402 -15.785 -44.977 -17.252 C -45.357 -16.863 -45.762 -16.478 -46.203 -16.087 C -46.104 -15.586 -46.055 -15.074 -46.055 -14.551 C -46.055 -12.075 -48.062 -10.068 -50.539 -10.068 C -52.073 -10.068 -53.572 -10.189 -55.026 -10.43 C -54.785 -8.976 -54.662 -7.477 -54.662 -5.944 C -54.662 -3.466 -56.671 -1.459 -59.146 -1.459 C -59.669 -1.459 -60.182 -1.511 -60.682 -1.607 C -62.443 .37 -64.069 1.665 -66.552 2.908 C -67.816 3.54 -69.303 3.54 -70.563 2.908 C -73.051 1.667 -74.677 .37 -76.438 -1.607 C -76.938 -1.509 -77.451 -1.459 -77.974 -1.459 C -80.45 -1.459 -82.458 -3.466 -82.458 -5.944 C -82.458 -7.477 -82.335 -8.977 -82.094 -10.43 C -83.547 -10.189 -85.047 -10.068 -86.58 -10.068 C -89.058 -10.068 -91.065 -12.075 -91.065 -14.551 C -91.065 -15.074 -91.015 -15.586 -90.917 -16.086 C -91.357 -16.478 -91.763 -16.863 -92.143 -17.252 C -93.493 -15.993 -95.237 -15.152 -97.169 -14.939 C -97.493 -14.904 -97.823 -14.885 -98.146 -14.885 C -100.463 -14.885 -102.574 -15.785 -104.148 -17.253 C -104.529 -16.863 -104.934 -16.478 -105.376 -16.086 C -105.278 -15.586 -105.227 -15.074 -105.227 -14.551 C -105.227 -12.075 -107.235 -10.068 -109.711 -10.068 C -111.457 -10.068 -113.157 -10.225 -114.795 -10.535 C -114.572 -8.305 -114.742 -6.017 -115.288 -3.606 C -115.594 -2.262 -116.5 -1.134 -117.745 -.545 C -118.989 .044 -120.437 .028 -121.668 -.588 C -121.696 -.602 -121.723 -.616 -121.75 -.629 C -124.445 2.025 -127.418 2.536 -129.311 2.536 C -131.828 2.536 -134.454 1.683 -137.12 0 C -138.579 -.922 -139.38 -2.595 -139.181 -4.307 C -138.984 -6.02 -137.821 -7.466 -136.192 -8.03 C -133.799 -8.859 -133.111 -9.874 -132.66 -18.227 C -134.822 -20.259 -135.568 -23.754 -134.366 -27.221 C -133.678 -29.21 -132.438 -30.837 -130.903 -31.861 L -128.015 -38.215 C -130.048 -39.887 -131.368 -42.406 -131.431 -45.236 C -131.431 -45.286 -131.433 -45.335 -131.433 -45.382 L -131.433 -45.418 L -131.433 -45.496 C -131.371 -50.58 -127.209 -54.701 -122.115 -54.701 L -15.007 -54.701 C -9.908 -54.701 -5.743 -50.572 -5.689 -45.453 C -5.687 -45.431 -5.687 -45.407 -5.687 -45.382 C -5.687 -45.357 -5.689 -45.332 -5.689 -45.305 C -5.722 -42.452 -7.047 -39.903 -9.105 -38.214 L -6.217 -31.861 C -4.682 -30.837 -3.441 -29.21 -2.752 -27.221 C -1.492 -23.581 -2.376 -19.914 -4.79 -17.939 C -4.445 -9.647 -3.214 -8.823 -.928 -8.03 C .701 -7.466 1.862 -6.02 2.061 -4.307 C 2.258 -2.595 1.457 -.922 0 0 M -9.358 -21.071 C -8.941 -20.948 -8.517 -20.954 -8.122 -21.115 C -6.798 -21.658 -6.292 -23.735 -6.991 -25.755 C -7.517 -27.272 -8.572 -28.324 -9.626 -28.524 L -15.107 -40.585 L -15.005 -40.585 C -12.342 -40.585 -10.182 -42.738 -10.173 -45.401 L -10.173 -45.382 L -10.173 -45.418 L -10.173 -45.401 C -10.182 -48.062 -12.342 -50.216 -15.007 -50.216 L -122.115 -50.216 C -124.778 -50.216 -126.938 -48.062 -126.947 -45.401 C -126.947 -45.406 -126.949 -45.411 -126.949 -45.418 L -126.949 -45.382 C -126.949 -45.388 -126.947 -45.395 -126.947 -45.401 C -126.938 -42.738 -124.778 -40.585 -122.115 -40.585 L -122.011 -40.585 L -127.494 -28.524 C -128.548 -28.324 -129.604 -27.272 -130.13 -25.755 C -130.828 -23.735 -130.322 -21.658 -128.998 -21.115 C -128.691 -20.99 -128.367 -20.957 -128.039 -21.008 C -128.485 -10.294 -128.872 -5.818 -134.725 -3.792 C -129.615 -.564 -125.042 -1.371 -122.353 -7.827 C -121.546 -6.212 -121.277 -5.407 -119.662 -4.599 C -118.32 -10.517 -119.932 -15.089 -123.699 -19.93 C -119.662 -15.895 -114.283 -14.551 -109.711 -14.551 C -109.711 -15.358 -109.981 -16.434 -111.057 -17.241 C -107.561 -19.93 -106.215 -21.276 -104.87 -23.965 C -106.215 -26.654 -107.561 -28 -111.057 -30.689 C -109.981 -31.496 -109.711 -32.572 -109.711 -33.379 C -114.283 -33.379 -119.662 -32.033 -123.699 -28 C -121.814 -32.572 -115.629 -36.875 -112.939 -36.875 C -110.666 -36.875 -104.545 -33.413 -100.269 -27.466 C -101.585 -26.724 -102.472 -25.314 -102.472 -23.695 C -102.472 -21.146 -100.266 -19.111 -97.657 -19.397 C -95.652 -19.617 -94.032 -21.263 -93.841 -23.272 C -93.671 -25.065 -94.596 -26.659 -96.023 -27.466 C -91.749 -33.413 -85.628 -36.875 -83.353 -36.875 C -80.664 -36.875 -73.938 -33.379 -72.594 -28 C -76.629 -32.033 -82.008 -33.379 -86.58 -33.379 C -86.58 -32.572 -86.312 -31.496 -85.236 -30.689 C -88.732 -28 -90.077 -26.654 -91.423 -23.965 C -90.077 -21.276 -88.732 -19.93 -85.236 -17.241 C -86.312 -16.434 -86.58 -15.358 -86.58 -14.551 C -82.008 -14.551 -76.629 -15.895 -72.594 -19.93 C -76.629 -15.895 -77.974 -10.517 -77.974 -5.944 C -77.168 -5.944 -76.09 -6.212 -75.285 -7.29 C -72.594 -3.792 -71.25 -2.447 -68.559 -1.103 C -65.871 -2.447 -64.526 -3.792 -61.837 -7.29 C -61.03 -6.212 -59.952 -5.944 -59.146 -5.944 C -59.146 -10.517 -60.491 -15.895 -64.526 -19.93 C -60.491 -15.895 -55.112 -14.551 -50.539 -14.551 C -50.539 -15.358 -50.808 -16.434 -51.884 -17.241 C -48.387 -19.93 -47.043 -21.276 -45.699 -23.965 C -47.043 -26.654 -48.387 -28 -51.884 -30.689 C -50.808 -31.496 -50.539 -32.572 -50.539 -33.379 C -55.112 -33.379 -60.491 -32.033 -64.526 -28 C -63.181 -33.379 -56.458 -36.875 -53.767 -36.875 C -51.492 -36.875 -45.371 -33.413 -41.097 -27.466 C -42.411 -26.724 -43.299 -25.314 -43.299 -23.695 C -43.299 -21.146 -41.094 -19.111 -38.485 -19.397 C -36.479 -19.617 -34.861 -21.263 -34.67 -23.272 C -34.497 -25.065 -35.424 -26.659 -36.851 -27.466 C -32.575 -33.413 -26.456 -36.875 -24.179 -36.875 C -21.491 -36.875 -15.306 -32.572 -13.422 -28 C -17.456 -32.033 -22.837 -33.379 -27.407 -33.379 C -27.407 -32.572 -27.139 -31.496 -26.063 -30.689 C -29.559 -28 -30.905 -26.654 -32.25 -23.965 C -30.905 -21.276 -29.559 -19.93 -26.063 -17.241 C -27.139 -16.434 -27.407 -15.358 -27.407 -14.551 C -22.837 -14.551 -17.456 -15.895 -13.422 -19.93 C -17.187 -15.089 -18.802 -10.517 -17.456 -4.599 C -15.843 -5.407 -15.574 -6.212 -14.767 -7.827 C -12.076 -1.371 -7.504 -.564 -2.395 -3.792 C -8.26 -5.823 -9.206 -10.313 -9.358 -21.071 M -71.499 -80.576 C -71.499 -80.576 -71.882 -79.271 -72.058 -78.151 C -72.218 -77.165 -72.213 -75.718 -72.213 -75.718 C -72.213 -75.718 -72.611 -75.24 -73.524 -74.844 C -74.469 -74.43 -75.339 -74.516 -75.339 -74.516 C -75.339 -74.516 -75.142 -75.184 -74.981 -75.956 C -74.82 -76.73 -74.721 -77.642 -74.721 -77.642 C -74.721 -77.642 -73.832 -78.006 -73.105 -78.68 C -72.367 -79.367 -71.499 -80.576 -71.499 -80.576 M -61.78 -74.516 C -61.78 -74.516 -62.65 -74.43 -63.596 -74.844 C -64.506 -75.24 -64.904 -75.718 -64.904 -75.718 C -64.904 -75.718 -64.903 -77.165 -65.058 -78.151 C -65.24 -79.271 -65.619 -80.576 -65.619 -80.576 C -65.619 -80.576 -64.753 -79.367 -64.016 -78.68 C -63.288 -78.006 -62.397 -77.642 -62.397 -77.642 C -62.397 -77.642 -62.301 -76.73 -62.139 -75.956 C -61.977 -75.184 -61.78 -74.516 -61.78 -74.516 M -28.152 -149.121 C -27.168 -150.291 -26.386 -150.484 -25.854 -150.484 C -24.953 -150.484 -24.094 -149.348 -23.848 -149.025 C -23.603 -148.7 -23.02 -147.533 -22.268 -147.421 C -21.561 -147.314 -21.223 -148.057 -21.223 -148.057 C -21.223 -148.057 -21.093 -147.643 -21.075 -147.437 C -21.017 -146.847 -21.34 -146.561 -21.66 -146.433 C -22.673 -146.033 -24.026 -147.207 -24.261 -147.391 C -25.633 -148.469 -26.804 -147.883 -27.685 -147.26 C -29.323 -146.096 -29.342 -143.912 -29.342 -143.912 L -29.982 -144.087 C -29.982 -144.087 -30.068 -145.122 -29.846 -146.011 C -29.46 -147.549 -28.457 -148.758 -28.152 -149.121 M -33.041 -135.324 C -33.38 -133.982 -34.07 -132.066 -34.54 -131.091 C -35.921 -128.236 -37.954 -127.423 -38.833 -127.048 C -40.733 -126.241 -42.508 -127.311 -43.246 -128.42 C -44.812 -130.773 -43.815 -133.276 -43.233 -134.116 C -42.496 -135.178 -40.522 -137.342 -40.066 -137.898 C -38.675 -139.592 -39.03 -140.539 -39.353 -140.92 C -40.161 -141.877 -41.48 -141.065 -41.48 -141.065 C -41.48 -141.065 -41.245 -141.847 -40.405 -142.19 C -39.017 -142.757 -38.244 -142.081 -37.755 -141.576 C -36.791 -140.579 -37.465 -139.058 -37.84 -138.48 C -38.215 -137.898 -38.658 -137.092 -38.905 -136.665 C -39.688 -135.32 -39.074 -133.695 -38.322 -133.016 C -36.975 -131.805 -35.501 -132.788 -34.759 -133.971 C -33.675 -135.699 -33.131 -138.017 -33.131 -138.017 C -33.131 -138.017 -32.972 -137.955 -32.814 -137.906 C -32.644 -137.858 -32.474 -137.823 -32.474 -137.823 C -32.474 -137.823 -32.775 -136.377 -33.041 -135.324 M -35.977 -127.228 C -35.241 -127.916 -34.374 -129.121 -34.374 -129.121 C -34.374 -129.121 -34.752 -127.817 -34.932 -126.697 C -35.091 -125.712 -35.09 -124.267 -35.09 -124.267 C -35.09 -124.267 -35.485 -123.788 -36.397 -123.39 C -37.344 -122.977 -38.212 -123.065 -38.212 -123.065 C -38.212 -123.065 -38.015 -123.73 -37.853 -124.504 C -37.692 -125.277 -37.594 -126.189 -37.594 -126.189 C -37.594 -126.189 -36.708 -126.553 -35.977 -127.228 M -41.209 -146.433 C -41.527 -146.561 -41.85 -146.847 -41.795 -147.437 C -41.774 -147.643 -41.643 -148.057 -41.643 -148.057 C -41.643 -148.057 -41.305 -147.314 -40.599 -147.421 C -39.846 -147.533 -39.266 -148.7 -39.02 -149.025 C -38.773 -149.348 -37.916 -150.485 -37.013 -150.485 C -36.481 -150.485 -35.696 -150.291 -34.715 -149.121 C -34.41 -148.758 -33.408 -147.549 -33.021 -146.011 C -32.797 -145.122 -32.884 -144.087 -32.884 -144.087 L -33.525 -143.912 C -33.525 -143.912 -33.546 -146.096 -35.181 -147.26 C -36.062 -147.883 -37.235 -148.469 -38.603 -147.391 C -38.839 -147.207 -40.197 -146.033 -41.209 -146.433 M -31.433 -138.726 C -33.128 -138.726 -34.502 -139.668 -34.502 -140.826 C -34.502 -141.987 -33.128 -142.924 -31.433 -142.924 C -29.739 -142.924 -28.364 -141.987 -28.364 -140.826 C -28.364 -139.668 -29.739 -138.726 -31.433 -138.726 M -29.919 -151.599 C -29.393 -150.677 -29.096 -149.439 -29.096 -149.439 C -29.096 -149.439 -29.83 -148.683 -30.368 -147.514 C -31.141 -145.826 -30.93 -144.153 -30.93 -144.153 C -30.93 -144.153 -31.077 -144.164 -31.19 -144.164 C -31.302 -144.164 -31.433 -144.169 -31.433 -144.169 C -31.433 -144.169 -31.565 -144.164 -31.678 -144.164 C -31.792 -144.164 -31.937 -144.153 -31.937 -144.153 C -31.937 -144.153 -31.724 -145.826 -32.499 -147.514 C -33.037 -148.683 -33.771 -149.439 -33.771 -149.439 C -33.771 -149.439 -33.475 -150.677 -32.948 -151.599 C -32.32 -152.705 -31.433 -153.724 -31.433 -153.724 C -31.433 -153.724 -30.547 -152.705 -29.919 -151.599 M -56.76 -175.997 C -56.179 -175.158 -55.182 -172.654 -56.748 -170.302 C -57.485 -169.191 -59.259 -168.124 -61.159 -168.931 C -62.037 -169.305 -64.072 -170.119 -65.454 -172.974 C -65.925 -173.947 -66.614 -175.865 -66.952 -177.206 C -67.219 -178.26 -67.52 -179.704 -67.52 -179.704 C -67.52 -179.704 -67.349 -179.739 -67.178 -179.789 C -67.022 -179.833 -66.862 -179.9 -66.862 -179.9 C -66.862 -179.9 -66.32 -177.582 -65.235 -175.849 C -64.493 -174.669 -63.017 -173.687 -61.671 -174.896 C -60.918 -175.575 -60.305 -177.201 -61.088 -178.548 C -61.334 -178.972 -61.775 -179.778 -62.152 -180.361 C -62.528 -180.941 -63.204 -182.458 -62.238 -183.457 C -61.75 -183.961 -60.978 -184.639 -59.588 -184.072 C -58.75 -183.728 -58.512 -182.947 -58.512 -182.947 C -58.512 -182.947 -59.831 -183.758 -60.639 -182.803 C -60.964 -182.422 -61.318 -181.471 -59.929 -179.778 C -59.47 -179.224 -57.496 -177.059 -56.76 -175.997 M -62.139 -166.385 C -61.977 -165.613 -61.78 -164.947 -61.78 -164.947 C -61.78 -164.947 -62.65 -164.858 -63.596 -165.273 C -64.506 -165.671 -64.904 -166.147 -64.904 -166.147 C -64.904 -166.147 -64.903 -167.595 -65.058 -168.58 C -65.24 -169.7 -65.619 -171.005 -65.619 -171.005 C -65.619 -171.005 -64.753 -169.796 -64.016 -169.111 C -63.288 -168.436 -62.397 -168.072 -62.397 -168.072 C -62.397 -168.072 -62.3 -167.159 -62.139 -166.385 M -68.559 -179.665 C -68.559 -179.665 -67.479 -174.647 -67.206 -173.44 C -66.108 -168.605 -66.09 -166.239 -66.591 -163.723 C -66.957 -161.89 -68.559 -159.788 -68.559 -159.788 C -68.559 -159.788 -70.165 -161.89 -70.529 -163.723 C -71.03 -166.239 -71.011 -168.605 -69.914 -173.44 C -69.64 -174.647 -68.559 -179.665 -68.559 -179.665 M -68.559 -180.607 C -70.255 -180.607 -71.628 -181.549 -71.628 -182.707 C -71.628 -183.867 -70.255 -184.806 -68.559 -184.806 C -66.866 -184.806 -65.49 -183.867 -65.49 -182.707 C -65.49 -181.549 -66.866 -180.607 -68.559 -180.607 M -65.279 -191.004 C -64.294 -192.173 -63.513 -192.365 -62.98 -192.365 C -62.079 -192.365 -61.221 -191.229 -60.973 -190.906 C -60.729 -190.583 -60.148 -189.416 -59.393 -189.302 C -58.687 -189.197 -58.35 -189.94 -58.35 -189.94 C -58.35 -189.94 -58.219 -189.524 -58.2 -189.318 C -58.144 -188.729 -58.467 -188.442 -58.785 -188.313 C -59.796 -187.916 -61.153 -189.09 -61.389 -189.274 C -62.758 -190.35 -63.93 -189.766 -64.811 -189.142 C -66.45 -187.979 -66.469 -185.794 -66.469 -185.794 L -67.108 -185.969 C -67.108 -185.969 -67.193 -187.005 -66.971 -187.892 C -66.585 -189.43 -65.583 -190.64 -65.279 -191.004 M -70.897 -191.322 C -70.897 -191.322 -70.6 -192.557 -70.075 -193.479 C -69.446 -194.587 -68.559 -195.607 -68.559 -195.607 C -68.559 -195.607 -67.671 -194.587 -67.044 -193.479 C -66.519 -192.557 -66.223 -191.322 -66.223 -191.322 C -66.223 -191.322 -66.957 -190.566 -67.494 -189.395 C -68.268 -187.708 -68.057 -186.035 -68.057 -186.035 C -68.057 -186.035 -68.2 -186.043 -68.313 -186.043 C -68.428 -186.043 -68.559 -186.05 -68.559 -186.05 C -68.559 -186.05 -68.693 -186.043 -68.805 -186.043 C -68.918 -186.043 -69.063 -186.035 -69.063 -186.035 C -69.063 -186.035 -68.852 -187.708 -69.624 -189.395 C -70.162 -190.566 -70.897 -191.322 -70.897 -191.322 M -78.918 -189.318 C -78.901 -189.524 -78.77 -189.94 -78.77 -189.94 C -78.77 -189.94 -78.433 -189.195 -77.725 -189.302 C -76.974 -189.416 -76.391 -190.583 -76.147 -190.906 C -75.898 -191.229 -75.039 -192.365 -74.14 -192.365 C -73.607 -192.365 -72.824 -192.173 -71.841 -191.004 C -71.535 -190.64 -70.535 -189.43 -70.147 -187.892 C -69.925 -187.005 -70.01 -185.969 -70.01 -185.969 L -70.652 -185.794 C -70.652 -185.794 -70.669 -187.979 -72.309 -189.142 C -73.188 -189.766 -74.359 -190.35 -75.731 -189.274 C -75.967 -189.09 -77.322 -187.916 -78.335 -188.313 C -78.653 -188.442 -78.977 -188.729 -78.918 -189.318 M -80.374 -170.302 C -81.937 -172.654 -80.938 -175.158 -80.358 -175.997 C -79.621 -177.059 -77.65 -179.224 -77.193 -179.778 C -75.802 -181.471 -76.155 -182.422 -76.479 -182.803 C -77.289 -183.758 -78.606 -182.947 -78.606 -182.947 C -78.606 -182.947 -78.371 -183.728 -77.532 -184.072 C -76.141 -184.639 -75.369 -183.961 -74.882 -183.457 C -73.916 -182.458 -74.592 -180.941 -74.968 -180.361 C -75.34 -179.778 -75.783 -178.972 -76.03 -178.548 C -76.818 -177.201 -76.202 -175.575 -75.449 -174.896 C -74.1 -173.687 -72.627 -174.669 -71.884 -175.849 C -70.796 -177.582 -70.256 -179.9 -70.256 -179.9 C -70.256 -179.9 -70.095 -179.833 -69.941 -179.789 C -69.771 -179.739 -69.601 -179.704 -69.601 -179.704 C -69.601 -179.704 -69.902 -178.26 -70.168 -177.206 C -70.505 -175.865 -71.195 -173.947 -71.668 -172.974 C -73.049 -170.119 -75.08 -169.305 -75.958 -168.931 C -77.859 -168.124 -79.637 -169.191 -80.374 -170.302 M -73.105 -169.111 C -72.367 -169.798 -71.499 -171.005 -71.499 -171.005 C -71.499 -171.005 -71.882 -169.7 -72.058 -168.58 C -72.218 -167.594 -72.213 -166.147 -72.213 -166.147 C -72.213 -166.147 -72.611 -165.671 -73.524 -165.273 C -74.469 -164.86 -75.339 -164.947 -75.339 -164.947 C -75.339 -164.947 -75.142 -165.613 -74.981 -166.385 C -74.82 -167.159 -74.721 -168.072 -74.721 -168.072 C -74.721 -168.072 -73.832 -168.436 -73.105 -169.111 M -108.024 -149.439 C -108.024 -149.439 -107.726 -150.677 -107.203 -151.599 C -106.574 -152.705 -105.688 -153.724 -105.688 -153.724 C -105.688 -153.724 -104.8 -152.705 -104.17 -151.599 C -103.646 -150.677 -103.349 -149.439 -103.349 -149.439 C -103.349 -149.439 -104.085 -148.683 -104.621 -147.514 C -105.394 -145.826 -105.183 -144.153 -105.183 -144.153 C -105.183 -144.153 -105.331 -144.164 -105.442 -144.164 C -105.555 -144.164 -105.688 -144.169 -105.688 -144.169 C -105.688 -144.169 -105.818 -144.164 -105.932 -144.164 C -106.044 -144.164 -106.188 -144.153 -106.188 -144.153 C -106.188 -144.153 -105.979 -145.826 -106.751 -147.514 C -107.29 -148.683 -108.024 -149.439 -108.024 -149.439 M -98.287 -127.048 C -99.166 -127.423 -101.199 -128.236 -102.581 -131.091 C -103.053 -132.066 -103.74 -133.982 -104.079 -135.324 C -104.345 -136.377 -104.648 -137.823 -104.648 -137.823 C -104.648 -137.823 -104.479 -137.858 -104.304 -137.906 C -104.15 -137.955 -103.989 -138.017 -103.989 -138.017 C -103.989 -138.017 -103.449 -135.699 -102.36 -133.971 C -101.619 -132.788 -100.146 -131.805 -98.801 -133.016 C -98.043 -133.695 -97.43 -135.32 -98.215 -136.665 C -98.464 -137.09 -98.905 -137.898 -99.28 -138.48 C -99.653 -139.058 -100.331 -140.579 -99.365 -141.576 C -98.877 -142.081 -98.106 -142.757 -96.717 -142.19 C -95.877 -141.847 -95.639 -141.064 -95.639 -141.064 C -95.639 -141.064 -96.958 -141.877 -97.767 -140.92 C -98.09 -140.539 -98.445 -139.592 -97.055 -137.898 C -96.597 -137.342 -94.624 -135.178 -93.887 -134.116 C -93.306 -133.276 -92.308 -130.773 -93.874 -128.42 C -94.613 -127.31 -96.386 -126.241 -98.287 -127.048 M -99.264 -124.504 C -99.105 -123.73 -98.908 -123.065 -98.908 -123.065 C -98.908 -123.065 -99.775 -122.977 -100.723 -123.39 C -101.634 -123.788 -102.034 -124.267 -102.034 -124.267 C -102.034 -124.267 -102.031 -125.712 -102.187 -126.697 C -102.366 -127.817 -102.746 -129.121 -102.746 -129.121 C -102.746 -129.121 -101.881 -127.916 -101.142 -127.228 C -100.414 -126.553 -99.526 -126.189 -99.526 -126.189 C -99.526 -126.189 -99.428 -125.277 -99.264 -124.504 M -102.62 -140.826 C -102.62 -139.668 -103.991 -138.726 -105.688 -138.726 C -107.381 -138.726 -108.755 -139.668 -108.755 -140.826 C -108.755 -141.987 -107.381 -142.924 -105.688 -142.924 C -103.991 -142.924 -102.62 -141.987 -102.62 -140.826 M -95.329 -147.437 C -95.27 -146.846 -95.592 -146.561 -95.911 -146.435 C -96.923 -146.033 -98.281 -147.207 -98.516 -147.391 C -99.885 -148.469 -101.059 -147.883 -101.938 -147.26 C -103.578 -146.096 -103.595 -143.912 -103.595 -143.912 L -104.235 -144.087 C -104.235 -144.087 -104.322 -145.122 -104.099 -146.011 C -103.713 -147.549 -102.71 -148.758 -102.407 -149.121 C -101.423 -150.291 -100.638 -150.485 -100.109 -150.485 C -99.204 -150.485 -98.347 -149.348 -98.1 -149.025 C -97.852 -148.7 -97.274 -147.533 -96.52 -147.421 C -95.812 -147.314 -95.477 -148.057 -95.477 -148.057 C -95.477 -148.057 -95.347 -147.643 -95.329 -147.437 M -116.046 -147.437 C -116.026 -147.643 -115.897 -148.057 -115.897 -148.057 C -115.897 -148.057 -115.558 -147.314 -114.851 -147.421 C -114.101 -147.533 -113.519 -148.7 -113.272 -149.025 C -113.026 -149.348 -112.169 -150.485 -111.266 -150.485 C -110.734 -150.485 -109.952 -150.291 -108.969 -149.121 C -108.662 -148.758 -107.663 -147.549 -107.276 -146.011 C -107.053 -145.122 -107.138 -144.087 -107.138 -144.087 L -107.778 -143.912 C -107.778 -143.912 -107.796 -146.096 -109.437 -147.26 C -110.316 -147.883 -111.487 -148.469 -112.859 -147.391 C -113.094 -147.207 -114.449 -146.033 -115.462 -146.435 C -115.78 -146.561 -116.103 -146.846 -116.046 -147.437 M -113.088 -127.048 C -114.986 -126.241 -116.762 -127.31 -117.499 -128.42 C -119.065 -130.773 -118.068 -133.276 -117.488 -134.116 C -116.749 -135.178 -114.778 -137.342 -114.32 -137.898 C -112.928 -139.592 -113.285 -140.539 -113.607 -140.92 C -114.416 -141.877 -115.734 -141.064 -115.734 -141.064 C -115.734 -141.064 -115.5 -141.847 -114.657 -142.19 C -113.269 -142.757 -112.498 -142.081 -112.007 -141.576 C -111.044 -140.579 -111.718 -139.058 -112.095 -138.48 C -112.47 -137.898 -112.911 -137.09 -113.16 -136.665 C -113.943 -135.32 -113.329 -133.695 -112.574 -133.016 C -111.229 -131.805 -109.755 -132.788 -109.012 -133.971 C -107.926 -135.699 -107.383 -138.017 -107.383 -138.017 C -107.383 -138.017 -107.224 -137.955 -107.069 -137.906 C -106.896 -137.858 -106.727 -137.823 -106.727 -137.823 C -106.727 -137.823 -107.031 -136.377 -107.296 -135.324 C -107.632 -133.982 -108.322 -132.066 -108.793 -131.091 C -110.176 -128.236 -112.208 -127.423 -113.088 -127.048 M -108.627 -129.121 C -108.627 -129.121 -109.009 -127.817 -109.188 -126.697 C -109.344 -125.712 -109.343 -124.267 -109.343 -124.267 C -109.343 -124.267 -109.74 -123.788 -110.65 -123.39 C -111.597 -122.977 -112.467 -123.065 -112.467 -123.065 C -112.467 -123.065 -112.268 -123.73 -112.106 -124.504 C -111.947 -125.277 -111.848 -126.189 -111.848 -126.189 C -111.848 -126.189 -110.959 -126.553 -110.233 -127.228 C -109.494 -127.916 -108.627 -129.121 -108.627 -129.121 M -104.334 -131.559 C -103.234 -126.723 -103.219 -124.357 -103.716 -121.841 C -104.084 -120.01 -105.688 -117.906 -105.688 -117.906 C -105.688 -117.906 -107.29 -120.01 -107.655 -121.841 C -108.156 -124.357 -108.137 -126.723 -107.041 -131.559 C -106.768 -132.766 -105.688 -137.782 -105.688 -137.782 C -105.688 -137.782 -104.605 -132.766 -104.334 -131.559 M -75.958 -78.504 C -77.859 -77.697 -79.637 -78.764 -80.374 -79.873 C -81.937 -82.225 -80.938 -84.729 -80.358 -85.567 C -79.621 -86.632 -77.65 -88.795 -77.193 -89.35 C -75.802 -91.045 -76.155 -91.993 -76.479 -92.375 C -77.289 -93.329 -78.606 -92.518 -78.606 -92.518 C -78.606 -92.518 -78.371 -93.299 -77.532 -93.643 C -76.141 -94.212 -75.369 -93.534 -74.882 -93.028 C -73.916 -92.029 -74.592 -90.512 -74.968 -89.932 C -75.34 -89.35 -75.783 -88.544 -76.03 -88.118 C -76.818 -86.771 -76.202 -85.146 -75.449 -84.467 C -74.1 -83.257 -72.627 -84.242 -71.884 -85.424 C -70.796 -87.152 -70.256 -89.468 -70.256 -89.468 C -70.256 -89.468 -70.095 -89.405 -69.939 -89.361 C -69.771 -89.309 -69.601 -89.276 -69.601 -89.276 C -69.601 -89.276 -69.902 -87.828 -70.168 -86.775 C -70.505 -85.433 -71.195 -83.519 -71.668 -82.544 C -73.049 -79.69 -75.08 -78.876 -75.958 -78.504 M -64.811 -98.711 C -66.45 -97.55 -66.469 -95.366 -66.469 -95.366 L -67.108 -95.54 C -67.108 -95.54 -67.193 -96.575 -66.971 -97.463 C -66.584 -99.003 -65.583 -100.211 -65.279 -100.573 C -64.294 -101.743 -63.513 -101.936 -62.98 -101.936 C -62.079 -101.936 -61.221 -100.8 -60.973 -100.477 C -60.729 -100.154 -60.148 -98.985 -59.395 -98.874 C -58.687 -98.766 -58.35 -99.51 -58.35 -99.51 C -58.35 -99.51 -58.219 -99.094 -58.2 -98.889 C -58.144 -98.302 -58.467 -98.01 -58.785 -97.886 C -59.796 -97.486 -61.153 -98.659 -61.389 -98.844 C -62.758 -99.921 -63.93 -99.333 -64.811 -98.711 M -68.559 -94.379 C -66.866 -94.379 -65.49 -93.44 -65.49 -92.28 C -65.49 -91.119 -66.866 -90.178 -68.559 -90.178 C -70.255 -90.178 -71.628 -91.119 -71.628 -92.28 C -71.628 -93.44 -70.255 -94.379 -68.559 -94.379 M -66.223 -100.892 C -66.223 -100.892 -66.957 -100.137 -67.494 -98.966 C -68.268 -97.279 -68.057 -95.609 -68.057 -95.609 C -68.057 -95.609 -68.2 -95.614 -68.313 -95.614 C -68.428 -95.614 -68.559 -95.622 -68.559 -95.622 C -68.559 -95.622 -68.693 -95.614 -68.803 -95.614 C -68.918 -95.614 -69.063 -95.609 -69.063 -95.609 C -69.063 -95.609 -68.852 -97.279 -69.624 -98.966 C -70.162 -100.137 -70.897 -100.892 -70.897 -100.892 C -70.897 -100.892 -70.6 -102.13 -70.075 -103.05 C -69.446 -104.158 -68.559 -105.177 -68.559 -105.177 C -68.559 -105.177 -67.671 -104.158 -67.044 -103.05 C -66.519 -102.13 -66.223 -100.892 -66.223 -100.892 M -71.841 -100.573 C -71.535 -100.211 -70.535 -99.003 -70.147 -97.463 C -69.925 -96.575 -70.01 -95.54 -70.01 -95.54 L -70.652 -95.366 C -70.652 -95.366 -70.669 -97.55 -72.309 -98.711 C -73.188 -99.333 -74.359 -99.921 -75.729 -98.844 C -75.967 -98.659 -77.322 -97.486 -78.335 -97.886 C -78.653 -98.01 -78.977 -98.302 -78.918 -98.889 C -78.901 -99.094 -78.77 -99.51 -78.77 -99.51 C -78.77 -99.51 -78.433 -98.766 -77.725 -98.874 C -76.974 -98.985 -76.391 -100.154 -76.147 -100.477 C -75.898 -100.8 -75.039 -101.936 -74.14 -101.936 C -73.607 -101.936 -72.824 -101.743 -71.841 -100.573 M -67.206 -83.011 C -66.108 -78.176 -66.09 -75.811 -66.591 -73.292 C -66.957 -71.461 -68.559 -69.36 -68.559 -69.36 C -68.559 -69.36 -70.165 -71.461 -70.529 -73.292 C -71.03 -75.811 -71.011 -78.176 -69.914 -83.011 C -69.64 -84.218 -68.559 -89.235 -68.559 -89.235 C -68.559 -89.235 -67.479 -84.218 -67.206 -83.011 M -56.76 -85.567 C -56.179 -84.729 -55.182 -82.225 -56.748 -79.873 C -57.485 -78.764 -59.259 -77.697 -61.159 -78.504 C -62.037 -78.876 -64.072 -79.69 -65.454 -82.544 C -65.925 -83.519 -66.614 -85.433 -66.952 -86.775 C -67.219 -87.828 -67.52 -89.276 -67.52 -89.276 C -67.52 -89.276 -67.349 -89.309 -67.178 -89.361 C -67.022 -89.405 -66.862 -89.468 -66.862 -89.468 C -66.862 -89.468 -66.32 -87.152 -65.235 -85.424 C -64.493 -84.242 -63.017 -83.257 -61.671 -84.467 C -60.918 -85.146 -60.305 -86.771 -61.088 -88.119 C -61.334 -88.544 -61.775 -89.35 -62.152 -89.932 C -62.528 -90.512 -63.204 -92.029 -62.238 -93.028 C -61.75 -93.534 -60.978 -94.212 -59.588 -93.643 C -58.75 -93.299 -58.512 -92.518 -58.512 -92.518 C -58.512 -92.518 -59.831 -93.329 -60.639 -92.375 C -60.964 -91.993 -61.318 -91.045 -59.929 -89.35 C -59.47 -88.795 -57.496 -86.632 -56.76 -85.567 M -61.006 -118.942 L -68.558 -132.135 L -68.563 -132.135 L -76.112 -118.942 L -68.563 -118.942 L -68.558 -118.942 Z M -30.472 -168.123 C -30.472 -168.123 -30.683 -168.644 -33.304 -169.308 C -36.131 -170.025 -37.045 -167.028 -37.283 -166.343 C -38.313 -163.378 -40.318 -163.075 -42.02 -162.464 C -43.72 -161.854 -48.795 -160.464 -49.675 -160.212 C -52.336 -159.456 -52.076 -158.693 -51.827 -158.279 C -51.361 -157.506 -49.434 -158.382 -48.18 -158.79 C -46.209 -159.426 -44.892 -159.653 -43.865 -159.529 C -41.929 -159.295 -41.658 -157.061 -42.162 -155.53 C -42.567 -154.304 -54.966 -119.998 -54.966 -119.998 L -51.53 -119.998 C -51.53 -119.998 -50.258 -114.879 -49.444 -112.735 C -47.383 -107.291 -45.415 -105.246 -44.755 -104.818 C -41.563 -102.749 -40.608 -104.827 -40.423 -105.39 C -39.77 -107.376 -40.993 -108.418 -40.993 -108.418 C -40.993 -108.418 -40.44 -108.646 -39.885 -108.662 C -38.918 -108.695 -38.138 -108.219 -37.476 -107.504 C -35.746 -105.648 -37.311 -103.288 -37.311 -103.288 C -37.311 -103.288 -34.979 -102.91 -33.99 -99.705 C -32.772 -95.764 -37.018 -92.88 -37.018 -92.88 C -37.018 -92.88 -36.837 -93.153 -37.152 -95.064 C -37.465 -96.975 -40.768 -97.815 -42.343 -98.207 C -46.006 -99.118 -48.669 -101.818 -50.228 -103.63 C -52.106 -105.818 -53.655 -110.839 -53.655 -110.839 L -68.558 -110.839 L -68.563 -110.839 L -83.465 -110.839 C -83.465 -110.839 -85.012 -105.818 -86.892 -103.63 C -88.45 -101.818 -91.112 -99.118 -94.777 -98.207 C -96.348 -97.815 -99.652 -96.975 -99.97 -95.064 C -100.285 -93.153 -100.102 -92.88 -100.102 -92.88 C -100.102 -92.88 -104.347 -95.764 -103.129 -99.705 C -102.141 -102.91 -99.808 -103.288 -99.808 -103.288 C -99.808 -103.288 -101.371 -105.648 -99.647 -107.504 C -98.982 -108.219 -98.201 -108.695 -97.236 -108.662 C -96.68 -108.646 -96.127 -108.418 -96.127 -108.418 C -96.127 -108.418 -97.348 -107.376 -96.698 -105.39 C -96.513 -104.827 -95.559 -102.749 -92.363 -104.818 C -91.703 -105.246 -89.736 -107.291 -87.675 -112.735 C -86.86 -114.879 -85.59 -119.998 -85.59 -119.998 L -82.153 -119.998 C -82.153 -119.998 -94.555 -154.304 -94.958 -155.53 C -95.462 -157.061 -95.191 -159.295 -93.255 -159.529 C -92.23 -159.653 -90.911 -159.426 -88.94 -158.79 C -87.684 -158.382 -85.759 -157.506 -85.291 -158.279 C -85.047 -158.693 -84.784 -159.456 -87.443 -160.212 C -88.326 -160.464 -93.4 -161.854 -95.1 -162.464 C -96.802 -163.075 -98.806 -163.378 -99.838 -166.343 C -100.076 -167.028 -100.989 -170.025 -103.814 -169.308 C -106.437 -168.644 -106.647 -168.123 -106.647 -168.123 C -106.647 -168.123 -105.021 -172.183 -102.577 -173.421 C -97.914 -175.78 -94.969 -171.98 -94.969 -171.98 C -94.969 -171.98 -93.75 -173.36 -91.25 -172.794 C -90.307 -172.581 -89.431 -171.967 -88.912 -171.268 C -88.644 -170.911 -88.429 -170.439 -88.429 -170.439 C -88.429 -170.439 -91.002 -170.483 -91.511 -169.205 C -91.788 -168.512 -91.758 -167.52 -89.246 -165.908 C -88.445 -165.391 -84.599 -163.248 -83.011 -162.174 C -81.374 -161.068 -79.181 -159.413 -80.216 -157.357 C -81.04 -155.721 -82.709 -155.095 -82.709 -155.095 L -76.328 -130.864 L -68.563 -143.614 L -68.558 -143.614 L -60.792 -130.864 L -54.414 -155.095 C -54.414 -155.095 -56.078 -155.721 -56.905 -157.357 C -57.937 -159.413 -55.744 -161.068 -54.109 -162.174 C -52.519 -163.248 -48.678 -165.391 -47.876 -165.908 C -45.36 -167.52 -45.332 -168.512 -45.609 -169.205 C -46.116 -170.483 -48.688 -170.439 -48.688 -170.439 C -48.688 -170.439 -48.475 -170.911 -48.209 -171.268 C -47.687 -171.967 -46.811 -172.581 -45.869 -172.794 C -43.372 -173.36 -42.149 -171.98 -42.149 -171.98 C -42.149 -171.98 -39.206 -175.78 -34.541 -173.421 C -32.098 -172.183 -30.472 -168.123 -30.472 -168.123 M -30.079 -131.559 C -28.981 -126.723 -28.964 -124.357 -29.465 -121.841 C -29.83 -120.01 -31.433 -117.906 -31.433 -117.906 C -31.433 -117.906 -33.037 -120.01 -33.402 -121.841 C -33.902 -124.357 -33.884 -126.723 -32.786 -131.559 C -32.514 -132.766 -31.433 -137.782 -31.433 -137.782 C -31.433 -137.782 -30.35 -132.766 -30.079 -131.559 M -24.653 -123.065 C -24.653 -123.065 -25.525 -122.977 -26.468 -123.39 C -27.379 -123.788 -27.778 -124.267 -27.778 -124.267 C -27.778 -124.267 -27.774 -125.712 -27.934 -126.697 C -28.112 -127.817 -28.491 -129.121 -28.491 -129.121 C -28.491 -129.121 -27.628 -127.916 -26.889 -127.228 C -26.161 -126.553 -25.271 -126.189 -25.271 -126.189 C -25.271 -126.189 -25.173 -125.277 -25.013 -124.504 C -24.85 -123.73 -24.653 -123.065 -24.653 -123.065 M -19.635 -134.116 C -19.053 -133.276 -18.057 -130.773 -19.62 -128.42 C -20.359 -127.31 -22.133 -126.241 -24.033 -127.048 C -24.913 -127.423 -26.943 -128.236 -28.326 -131.091 C -28.799 -132.066 -29.487 -133.982 -29.826 -135.324 C -30.089 -136.377 -30.393 -137.823 -30.393 -137.823 C -30.393 -137.823 -30.224 -137.858 -30.053 -137.906 C -29.895 -137.955 -29.736 -138.017 -29.736 -138.017 C -29.736 -138.017 -29.194 -135.699 -28.108 -133.971 C -27.366 -132.788 -25.892 -131.805 -24.546 -133.016 C -23.792 -133.695 -23.177 -135.32 -23.963 -136.665 C -24.209 -137.09 -24.652 -137.898 -25.025 -138.48 C -25.4 -139.058 -26.078 -140.579 -25.11 -141.576 C -24.625 -142.081 -23.851 -142.757 -22.462 -142.19 C -21.624 -141.847 -21.387 -141.064 -21.387 -141.064 C -21.387 -141.064 -22.704 -141.877 -23.514 -140.92 C -23.837 -140.539 -24.192 -139.592 -22.801 -137.898 C -22.345 -137.342 -20.371 -135.178 -19.635 -134.116 M -13.461 -59.634 L -68.569 -59.634 L -68.569 -59.637 L -123.661 -59.637 C -127.617 -59.637 -130.823 -62.843 -130.823 -66.799 L -130.823 -178.631 C -130.823 -194.506 -117.954 -207.375 -102.078 -207.375 L -81.935 -207.375 C -79.236 -207.375 -76.7 -208.123 -74.784 -209.309 C -73.306 -210.179 -72.005 -211.318 -70.951 -212.659 C -70.344 -213.431 -69.438 -213.811 -68.551 -213.785 L -68.551 -213.782 C -67.669 -213.803 -66.773 -213.423 -66.169 -212.657 C -65.115 -211.315 -63.814 -210.176 -62.336 -209.306 C -60.42 -208.122 -57.884 -207.373 -55.186 -207.373 L -35.042 -207.373 C -19.167 -207.373 -6.297 -194.503 -6.297 -178.628 L -6.297 -66.798 C -6.297 -62.842 -9.505 -59.634 -13.461 -59.634 M -11.766 -178.628 C -11.766 -191.464 -22.208 -201.906 -35.042 -201.906 L -55.186 -201.906 C -60.721 -201.906 -65.673 -204.112 -68.563 -207.428 C -71.45 -204.115 -76.399 -201.908 -81.935 -201.908 L -102.078 -201.908 C -114.914 -201.908 -125.356 -191.465 -125.356 -178.631 L -125.356 -66.801 C -125.356 -65.865 -124.595 -65.104 -123.661 -65.104 L -68.551 -65.104 L -68.551 -65.103 L -13.461 -65.103 C -12.527 -65.103 -11.766 -65.862 -11.766 -66.798 Z M 17.373 -91.592 L 17.373 -76.616 L 83.742 -76.616 L 83.742 -91.592 L 59.462 -91.592 L 59.462 -157.622 L 41.653 -157.622 L 41.653 -91.592 Z M 152.607 -151.437 C 146.482 -156.775 138.007 -159.44 127.195 -159.44 C 116.228 -159.44 107.736 -156.792 101.723 -151.495 C 95.712 -146.203 92.704 -138.031 92.704 -126.993 L 92.704 -76.616 L 110.518 -76.616 L 110.518 -126.993 C 110.518 -129.186 110.705 -131.338 111.082 -133.456 C 111.462 -135.573 112.254 -137.45 113.466 -139.071 C 114.676 -140.698 116.36 -142.025 118.515 -143.046 C 120.67 -144.068 123.565 -144.576 127.195 -144.576 C 133.547 -144.576 137.933 -143.156 140.353 -140.323 C 142.775 -137.483 143.986 -133.041 143.986 -126.993 L 143.986 -76.616 L 161.797 -76.616 L 161.797 -126.993 C 161.797 -137.957 158.733 -146.105 152.607 -151.437 M 219.479 -76.616 C 223.108 -76.616 226.38 -77.206 229.291 -78.376 C 232.203 -79.548 234.699 -81.159 236.781 -83.2 C 238.859 -85.238 240.449 -87.604 241.546 -90.287 C 242.641 -92.976 243.189 -95.866 243.189 -98.966 C 243.189 -103.731 242.185 -107.859 240.183 -111.331 C 238.177 -114.811 234.91 -117.46 230.371 -119.278 L 230.371 -119.503 C 232.562 -120.11 234.379 -121.031 235.816 -122.284 C 237.251 -123.53 238.426 -125.008 239.332 -126.703 C 240.241 -128.406 240.901 -130.281 241.317 -132.324 C 241.732 -134.368 242.015 -136.403 242.168 -138.447 C 242.244 -139.734 242.321 -141.247 242.396 -142.989 C 242.472 -144.725 242.604 -146.502 242.795 -148.322 C 242.981 -150.132 243.285 -151.859 243.701 -153.479 C 244.115 -155.106 244.739 -156.486 245.573 -157.622 L 227.759 -157.622 C 226.775 -155.054 226.174 -151.991 225.945 -148.429 C 225.72 -144.881 225.38 -141.477 224.923 -138.221 C 224.318 -133.987 223.034 -130.889 221.069 -128.92 C 219.101 -126.952 215.887 -125.971 211.424 -125.971 L 193.613 -125.971 L 193.613 -157.622 L 175.8 -157.622 L 175.8 -76.616 Z M 213.125 -113.264 C 217.211 -113.264 220.273 -112.353 222.315 -110.542 C 224.357 -108.723 225.38 -105.774 225.38 -101.689 C 225.38 -97.76 224.357 -94.903 222.315 -93.126 C 220.273 -91.349 217.211 -90.46 213.125 -90.46 L 193.613 -90.46 L 193.613 -113.264 Z M 274.51 -76.616 L 274.51 -110.201 L 306.16 -76.616 L 328.398 -76.616 L 296.746 -108.613 L 331.461 -157.622 L 309.112 -157.622 L 284.721 -121.205 L 274.51 -131.529 L 274.51 -157.622 L 256.697 -157.622 L 256.697 -76.616 Z M 397.079 -151.437 C 390.953 -156.775 382.479 -159.44 371.664 -159.44 C 360.699 -159.44 352.207 -156.792 346.195 -151.495 C 340.181 -146.203 337.175 -138.031 337.175 -126.993 L 337.175 -76.616 L 354.988 -76.616 L 354.988 -126.993 C 354.988 -129.186 355.177 -131.338 355.553 -133.456 C 355.932 -135.573 356.726 -137.45 357.937 -139.071 C 359.147 -140.698 360.831 -142.025 362.985 -143.046 C 365.142 -144.068 368.036 -144.576 371.664 -144.576 C 378.018 -144.576 382.403 -143.156 384.825 -140.323 C 387.246 -137.483 388.458 -133.041 388.458 -126.993 L 388.458 -76.616 L 406.267 -76.616 L 406.267 -126.993 C 406.267 -137.957 403.204 -146.105 397.079 -151.437 " fill="#ffffff"/>
</g>
</g>
</g>
</svg>
